<svg width="395" height="70" viewBox="0 0 395 70" fill="none" xmlns="http://www.w3.org/2000/svg">
<rect x="0.5" y="0.5" width="394" height="69" rx="9.5" fill="white"/>
<rect x="0.5" y="0.5" width="394" height="69" rx="9.5" stroke="black"/>
<g clip-path="url(#clip0_11173_21901)">
<path d="M69.5667 26.0154C70.8667 26.0154 72.4963 25.0877 73.4668 23.8509C74.3457 22.7299 74.9866 21.1645 74.9866 19.5991C74.9866 19.3865 74.9683 19.1739 74.9316 19C73.4851 19.058 71.7456 20.0243 70.7019 21.3191C69.8779 22.3048 69.1272 23.8509 69.1272 25.4356C69.1272 25.6675 69.1638 25.8994 69.1821 25.9767C69.2737 25.9961 69.4202 26.0154 69.5667 26.0154ZM64.989 49.4C66.7651 49.4 67.5525 48.1438 69.7681 48.1438C72.0203 48.1438 72.5146 49.3613 74.4922 49.3613C76.4331 49.3613 77.7332 47.4674 78.96 45.6121C80.3333 43.4862 80.9009 41.399 80.9375 41.3024C80.8093 41.2637 77.0923 39.6596 77.0923 35.1566C77.0923 31.2528 80.022 29.4941 80.1868 29.3588C78.2459 26.4212 75.2979 26.3439 74.4922 26.3439C72.3132 26.3439 70.5371 27.7354 69.4202 27.7354C68.2117 27.7354 66.6187 26.4212 64.7327 26.4212C61.1438 26.4212 57.5 29.5521 57.5 35.4659C57.5 39.1378 58.855 43.0224 60.5212 45.5348C61.9495 47.6606 63.1946 49.4 64.989 49.4Z" fill="black"/>
</g>
<path d="M111.43 43.793C106.484 43.793 103.379 40.4883 103.379 35.0391V35.0273C103.379 29.5781 106.496 26.2969 111.43 26.2969C115.531 26.2969 118.473 28.8867 118.801 32.4727L118.812 32.5781H115.367L115.32 32.3789C114.922 30.5156 113.539 29.2969 111.43 29.2969C108.723 29.2969 106.988 31.4766 106.988 35.0156V35.0273C106.988 38.5898 108.723 40.793 111.43 40.793C113.469 40.793 114.898 39.6211 115.355 37.6172L115.379 37.5H118.824L118.812 37.6289C118.484 41.2266 115.52 43.793 111.43 43.793ZM127.208 43.7578C123.388 43.7578 120.986 41.3086 120.986 37.2188V37.1953C120.986 33.1523 123.447 30.6797 127.197 30.6797C130.958 30.6797 133.431 33.1289 133.431 37.1953V37.2188C133.431 41.3203 131.005 43.7578 127.208 43.7578ZM127.22 41.0742C128.884 41.0742 129.95 39.668 129.95 37.2188V37.1953C129.95 34.7695 128.861 33.3633 127.197 33.3633C125.544 33.3633 124.466 34.7695 124.466 37.1953V37.2188C124.466 39.6797 125.532 41.0742 127.22 41.0742ZM135.92 43.5V30.9375H139.342V33H139.413C140.057 31.5586 141.346 30.6797 143.245 30.6797C146.01 30.6797 147.581 32.4492 147.581 35.3906V43.5H144.159V36.0938C144.159 34.4531 143.385 33.5156 141.85 33.5156C140.315 33.5156 139.342 34.6406 139.342 36.2812V43.5H135.92ZM155.461 43.7578C152.672 43.7578 151.359 42.6797 151.359 39.9844V33.5156H149.613V30.9375H151.359V27.8672H154.816V30.9375H157.113V33.5156H154.816V39.6094C154.816 40.7812 155.344 41.1797 156.375 41.1797C156.68 41.1797 156.902 41.1445 157.113 41.1211V43.6289C156.726 43.6875 156.176 43.7578 155.461 43.7578ZM161.501 29.3203C160.47 29.3203 159.673 28.5117 159.673 27.5391C159.673 26.5664 160.47 25.7578 161.501 25.7578C162.532 25.7578 163.329 26.5664 163.329 27.5391C163.329 28.5117 162.532 29.3203 161.501 29.3203ZM159.79 43.5V30.9375H163.212V43.5H159.79ZM166.229 43.5V30.9375H169.651V33H169.721C170.366 31.5586 171.655 30.6797 173.553 30.6797C176.319 30.6797 177.889 32.4492 177.889 35.3906V43.5H174.467V36.0938C174.467 34.4531 173.694 33.5156 172.159 33.5156C170.623 33.5156 169.651 34.6406 169.651 36.2812V43.5H166.229ZM185.054 43.7578C182.289 43.7578 180.718 41.9883 180.718 39.0469V30.9375H184.14V38.332C184.14 39.9727 184.914 40.9219 186.449 40.9219C187.984 40.9219 188.957 39.7969 188.957 38.1562V30.9375H192.379V43.5H188.957V41.4258H188.886C188.242 42.8672 186.953 43.7578 185.054 43.7578ZM201.044 43.7578C197.2 43.7578 194.868 41.2617 194.868 37.2422V37.2305C194.868 33.2344 197.224 30.6797 200.903 30.6797C204.583 30.6797 206.892 33.1758 206.892 36.9727V38.0273H198.243C198.278 40.0312 199.368 41.2031 201.114 41.2031C202.52 41.2031 203.376 40.4297 203.622 39.7266L203.645 39.6562H206.786L206.751 39.7852C206.364 41.6367 204.63 43.7578 201.044 43.7578ZM200.962 33.2344C199.556 33.2344 198.501 34.1719 198.278 35.8711H203.61C203.399 34.1367 202.38 33.2344 200.962 33.2344ZM217.308 43.5L213.968 30.9375H217.414L219.312 40.2539H219.382L221.609 30.9375H224.89L227.128 40.2539H227.199L229.109 30.9375H232.484L229.156 43.5H225.511L223.238 34.6172H223.168L220.906 43.5H217.308ZM236.321 29.3203C235.29 29.3203 234.493 28.5117 234.493 27.5391C234.493 26.5664 235.29 25.7578 236.321 25.7578C237.352 25.7578 238.149 26.5664 238.149 27.5391C238.149 28.5117 237.352 29.3203 236.321 29.3203ZM234.61 43.5V30.9375H238.032V43.5H234.61ZM246.041 43.7578C243.252 43.7578 241.94 42.6797 241.94 39.9844V33.5156H240.193V30.9375H241.94V27.8672H245.397V30.9375H247.693V33.5156H245.397V39.6094C245.397 40.7812 245.924 41.1797 246.955 41.1797C247.26 41.1797 247.482 41.1445 247.693 41.1211V43.6289C247.307 43.6875 246.756 43.7578 246.041 43.7578ZM250.382 43.5V26.5898H253.804V33.1055H253.874C254.519 31.5469 255.843 30.6797 257.73 30.6797C260.449 30.6797 262.136 32.5781 262.136 35.6133V43.5H258.714V36.3164C258.714 34.5586 257.847 33.5156 256.288 33.5156C254.777 33.5156 253.804 34.6641 253.804 36.3047V43.5H250.382ZM269.752 43.5L275.658 26.5898H279.818L285.713 43.5H281.998L280.721 39.3984H274.744L273.467 43.5H269.752ZM277.697 29.8711L275.564 36.75H279.9L277.768 29.8711H277.697ZM287.874 47.6016V30.9375H291.296V33.1289H291.378C292.058 31.6055 293.429 30.6797 295.21 30.6797C298.398 30.6797 300.343 33.1172 300.343 37.207V37.2188C300.343 41.2969 298.398 43.7578 295.257 43.7578C293.464 43.7578 292.046 42.8438 291.366 41.3555H291.296V47.6016H287.874ZM294.085 40.9219C295.784 40.9219 296.863 39.5039 296.863 37.2188V37.207C296.863 34.9102 295.784 33.5156 294.085 33.5156C292.421 33.5156 291.284 34.9453 291.284 37.2188V37.2305C291.284 39.4922 292.421 40.9219 294.085 40.9219ZM302.844 47.6016V30.9375H306.266V33.1289H306.348C307.028 31.6055 308.399 30.6797 310.18 30.6797C313.368 30.6797 315.313 33.1172 315.313 37.207V37.2188C315.313 41.2969 313.368 43.7578 310.227 43.7578C308.434 43.7578 307.016 42.8438 306.336 41.3555H306.266V47.6016H302.844ZM309.055 40.9219C310.754 40.9219 311.833 39.5039 311.833 37.2188V37.207C311.833 34.9102 310.754 33.5156 309.055 33.5156C307.391 33.5156 306.254 34.9453 306.254 37.2188V37.2305C306.254 39.4922 307.391 40.9219 309.055 40.9219ZM317.896 43.5V26.5898H321.318V43.5H317.896ZM330.065 43.7578C326.222 43.7578 323.89 41.2617 323.89 37.2422V37.2305C323.89 33.2344 326.245 30.6797 329.925 30.6797C333.605 30.6797 335.913 33.1758 335.913 36.9727V38.0273H327.265C327.3 40.0312 328.39 41.2031 330.136 41.2031C331.542 41.2031 332.398 40.4297 332.644 39.7266L332.667 39.6562H335.808L335.773 39.7852C335.386 41.6367 333.651 43.7578 330.065 43.7578ZM329.983 33.2344C328.577 33.2344 327.523 34.1719 327.3 35.8711H332.632C332.421 34.1367 331.401 33.2344 329.983 33.2344Z" fill="black"/>
<defs>
<clipPath id="clip0_11173_21901">
<rect width="25" height="32" fill="white" transform="translate(57.5 19)"/>
</clipPath>
</defs>
</svg>
