<svg width="56" height="54" viewBox="0 0 56 54" fill="none" xmlns="http://www.w3.org/2000/svg">
<path fill-rule="evenodd" clip-rule="evenodd" d="M9.52755 9.26393C1.32676 17.1914 1.32676 30.0433 9.52755 37.9708L14.477 33.1863C9.01174 27.9032 9.01174 19.3315 14.477 14.0484C19.9423 8.76532 28.8095 8.76532 34.2748 14.0484L39.2235 9.26467C47.4237 17.1922 47.4235 30.0437 39.2229 37.9709C31.0221 45.8983 17.727 45.8983 9.52616 37.9709L4.57671 42.7554C15.5072 53.3271 33.236 53.3271 44.1723 42.7554C55.1086 32.1892 55.1086 15.0514 44.1723 4.4796L39.2236 9.26333C31.0228 1.3365 17.7281 1.3367 9.52755 9.26393ZM29.3263 28.4014C32.0618 25.7571 32.0618 21.4768 29.3263 18.8325L34.2757 14.048C39.741 19.3311 39.741 27.9028 34.2757 33.1859C28.8104 38.469 19.9432 38.469 14.4779 33.1859L19.4274 28.4014C22.1629 31.0458 26.5907 31.0458 29.3263 28.4014ZM19.4277 28.4006C16.6922 25.7563 16.6922 21.476 19.4277 18.8317C22.1633 16.1874 26.5911 16.1874 29.3266 18.8317L24.3772 23.6162L19.4277 28.4006Z" fill="#06FFD2"/>
</svg>
