<svg width="165" height="70" viewBox="0 0 165 70" fill="none" xmlns="http://www.w3.org/2000/svg">
<path fill-rule="evenodd" clip-rule="evenodd" d="M10.0283 56.9719V13.791H16.404L31.0248 34.0512L45.3845 13.791H51.7602V56.9719H44.9787V26.0282L31.242 44.8001H30.5465L16.8677 25.6996V56.9719H10.0283ZM145.384 58.4143C142.95 58.4143 140.728 57.912 138.718 56.9073C137.168 56.1171 135.893 55.0519 134.893 53.7118V57.7188H128.633V13.8424H135.183V29.9686C136.178 28.8337 137.375 27.9019 138.776 27.1734C140.708 26.1687 142.911 25.6664 145.384 25.6664C148.359 25.6664 151.025 26.3812 153.383 27.8109C155.778 29.2406 157.652 31.192 159.005 33.665C160.396 36.138 161.091 38.9201 161.091 42.0113C161.091 45.1026 160.396 47.8847 159.005 50.3577C157.652 52.8307 155.798 54.8014 153.441 56.2697C151.083 57.6994 148.398 58.4143 145.384 58.4143ZM144.746 52.3284C146.601 52.3284 148.243 51.884 149.673 50.9953C151.103 50.1066 152.223 48.8894 153.035 47.3438C153.885 45.7595 154.31 43.982 154.31 42.0113C154.31 40.0407 153.885 38.2825 153.035 36.7369C152.223 35.1913 151.103 33.9741 149.673 33.0854C148.243 32.1966 146.601 31.7523 144.746 31.7523C142.93 31.7523 141.288 32.1966 139.82 33.0854C138.39 33.9741 137.25 35.1913 136.4 36.7369C135.589 38.2825 135.183 40.0407 135.183 42.0113C135.183 43.982 135.589 45.7595 136.4 47.3438C137.25 48.8894 138.39 50.1066 139.82 50.9953C141.288 51.884 142.93 52.3284 144.746 52.3284ZM115.409 57.7164V26.3596H121.959V57.7164H115.409ZM115.409 22.0705V14.5356H121.959V22.0705H115.409ZM94.6293 26.3602V57.717H101.179V39.6332C101.179 37.1602 101.836 35.2668 103.15 33.9531C104.502 32.6006 106.26 31.9244 108.424 31.9244H111.148V25.9545H109.235C107.072 25.9545 105.217 26.4181 103.671 27.3455C102.5 28.0192 101.572 29.0259 100.889 30.3656V26.3602H94.6293ZM74.2639 33.2781C76.7746 35.7906 76.7746 39.8574 74.2639 42.3699C71.7546 44.8812 67.6935 44.8824 65.1826 42.3736L60.6411 46.9185C55.6252 41.8989 55.6252 33.7546 60.6411 28.7349C65.655 23.7173 73.7886 23.7152 78.805 28.7288L83.3469 24.1836C90.8734 31.7157 90.8734 43.9269 83.3469 51.459C75.8204 58.9912 63.6184 58.9912 56.0919 51.459L60.6344 46.9131C65.6503 51.9328 73.7885 51.9328 78.8044 46.9131C83.8182 41.8955 83.8203 33.7557 78.8105 28.7356L74.2686 33.2808C71.758 30.7683 67.6942 30.7683 65.1836 33.2808C62.6743 35.7921 62.673 39.8562 65.1799 42.3689L69.7214 37.824L74.2639 33.2781Z" fill="white"/>
</svg>
