<svg width="395" height="70" viewBox="0 0 395 70" fill="none" xmlns="http://www.w3.org/2000/svg">
<rect width="395" height="70" rx="10" fill="#414751"/>
<path fill-rule="evenodd" clip-rule="evenodd" d="M81.2183 35.2465C81.2183 34.1894 81.1235 33.173 80.9473 32.1973H66.9072V37.9637H74.9301C74.5845 39.8271 73.5342 41.406 71.9554 42.463V46.2035H76.7732C79.5921 43.6082 81.2183 39.7865 81.2183 35.2465Z" fill="#4285F4"/>
<path fill-rule="evenodd" clip-rule="evenodd" d="M66.9068 49.8152C70.9318 49.8152 74.3063 48.4803 76.7728 46.2036L71.955 42.4632C70.6201 43.3576 68.9125 43.8862 66.9068 43.8862C63.0241 43.8862 59.7377 41.2638 58.5654 37.7402H53.585V41.6026C56.0379 46.4746 61.0793 49.8152 66.9068 49.8152Z" fill="#34A853"/>
<path fill-rule="evenodd" clip-rule="evenodd" d="M58.566 37.7401C58.2679 36.8456 58.0985 35.8902 58.0985 34.9077C58.0985 33.9251 58.2679 32.9697 58.566 32.0753V28.2129H53.5856C52.576 30.2254 52 32.5022 52 34.9077C52 37.3132 52.576 39.59 53.5856 41.6025L58.566 37.7401Z" fill="#FBBC05"/>
<path fill-rule="evenodd" clip-rule="evenodd" d="M66.9068 25.9291C69.0954 25.9291 71.0605 26.6812 72.6055 28.1584L76.8812 23.8827C74.2995 21.4772 70.925 20 66.9068 20C61.0793 20 56.0379 23.3406 53.585 28.2126L58.5654 32.075C59.7377 28.5514 63.0241 25.9291 66.9068 25.9291Z" fill="#EA4335"/>
<path d="M111.773 32.9375C111.492 31.0625 110.051 29.9258 108.07 29.9141C105.434 29.9258 103.688 31.9414 103.688 35.5156C103.688 39.1719 105.457 41.1055 108.047 41.1172C109.98 41.1055 111.434 40.0508 111.773 38.2109L115.336 38.2344C114.949 41.375 112.312 44.2344 108 44.2344C103.465 44.2344 100.102 41.0352 100.102 35.5156C100.102 29.9727 103.523 26.7969 108 26.7969C111.914 26.7969 114.867 29.0352 115.336 32.9375H111.773ZM123.445 44.2578C119.602 44.2461 117.199 41.6094 117.211 37.6719C117.199 33.7461 119.602 31.1094 123.445 31.1094C127.301 31.1094 129.691 33.7461 129.703 37.6719C129.691 41.6094 127.301 44.2461 123.445 44.2578ZM120.727 37.6719C120.727 39.8984 121.652 41.5508 123.469 41.5625C125.238 41.5508 126.176 39.8984 126.164 37.6719C126.176 35.4336 125.238 33.7578 123.469 33.7578C121.652 33.7578 120.727 35.4336 120.727 37.6719ZM135.352 36.6406V44H131.883V31.2734H135.188V33.5H135.328C135.902 32.0352 137.262 31.1094 139.148 31.1094C141.809 31.1094 143.543 32.9258 143.531 35.8906V44H140.086V36.5C140.074 34.9297 139.23 33.9922 137.789 33.9922C136.348 33.9922 135.352 34.9648 135.352 36.6406ZM152.93 31.2734V33.875H150.539V40.0859C150.527 41.1055 151.031 41.3516 151.734 41.375C152.086 41.375 152.695 41.3398 153.117 41.3047V44.0469C152.742 44.1055 152.121 44.1758 151.266 44.1641C148.758 44.1758 147.047 43.0508 147.07 40.5781V33.875H145.312V31.2734H147.07V28.2266H150.539V31.2734H152.93ZM155.109 44V31.2734H158.578V44H155.109ZM154.945 27.8516C154.945 26.8672 155.801 26.082 156.844 26.0703C157.875 26.082 158.73 26.8672 158.719 27.8516C158.73 28.8125 157.875 29.6094 156.844 29.6094C155.801 29.6094 154.945 28.8125 154.945 27.8516ZM164.742 36.6406V44H161.273V31.2734H164.578V33.5H164.719C165.293 32.0352 166.652 31.1094 168.539 31.1094C171.199 31.1094 172.934 32.9258 172.922 35.8906V44H169.477V36.5C169.465 34.9297 168.621 33.9922 167.18 33.9922C165.738 33.9922 164.742 34.9648 164.742 36.6406ZM183.773 38.5859V31.2734H187.242V44H183.914V41.7031H183.773C183.199 43.1797 181.828 44.1641 179.906 44.1641C177.363 44.1641 175.617 42.3594 175.617 39.3828V31.2734H179.086V38.7734C179.086 40.2852 179.953 41.2227 181.312 41.2344C182.578 41.2227 183.773 40.3203 183.773 38.5859ZM195.703 44.2578C191.801 44.2461 189.41 41.7266 189.422 37.6953C189.41 33.7695 191.836 31.1094 195.562 31.1094C198.902 31.1094 201.539 33.2188 201.539 37.5547V38.5391H192.844C192.844 40.4609 193.98 41.6445 195.773 41.6562C196.957 41.6445 197.801 41.1289 198.141 40.3672H201.445C200.953 42.7227 198.844 44.2461 195.703 44.2578ZM192.844 36.3594H198.258C198.246 34.8125 197.18 33.6992 195.633 33.7109C194.039 33.6992 192.914 34.8945 192.844 36.3594ZM211.758 44L208.289 31.2734H211.805L213.797 39.875H213.914L216 31.2734H219.445L221.555 39.8281H221.672L223.641 31.2734H227.156L223.664 44H220.008L217.805 35.9141H217.641L215.438 44H211.758ZM228.914 44V31.2734H232.383V44H228.914ZM228.75 27.8516C228.75 26.8672 229.605 26.082 230.648 26.0703C231.68 26.082 232.535 26.8672 232.523 27.8516C232.535 28.8125 231.68 29.6094 230.648 29.6094C229.605 29.6094 228.75 28.8125 228.75 27.8516ZM241.781 31.2734V33.875H239.391V40.0859C239.379 41.1055 239.883 41.3516 240.586 41.375C240.938 41.375 241.547 41.3398 241.969 41.3047V44.0469C241.594 44.1055 240.973 44.1758 240.117 44.1641C237.609 44.1758 235.898 43.0508 235.922 40.5781V33.875H234.164V31.2734H235.922V28.2266H239.391V31.2734H241.781ZM247.711 36.6406V44H244.242V27.0312H247.617V33.5H247.758C248.344 32.0117 249.621 31.1094 251.555 31.1094C254.215 31.1094 255.961 32.9023 255.961 35.8906V44H252.492V36.5C252.492 34.918 251.648 33.9922 250.195 33.9922C248.73 33.9922 247.711 34.9648 247.711 36.6406ZM275.508 32.4922C275.027 30.8984 273.75 29.9258 271.898 29.9141C269.273 29.9258 267.492 31.9297 267.492 35.4922C267.492 39.0781 269.215 41.1055 271.922 41.1172C274.348 41.1055 275.789 39.7344 275.836 37.6016H272.156V34.9531H279.234V37.0625C279.234 41.5156 276.176 44.2344 271.898 44.2344C267.141 44.2344 263.906 40.9062 263.906 35.5391C263.906 30.0312 267.352 26.7969 271.828 26.7969C275.66 26.7969 278.602 29.1523 279.07 32.4922H275.508ZM287.461 44.2578C283.617 44.2461 281.215 41.6094 281.227 37.6719C281.215 33.7461 283.617 31.1094 287.461 31.1094C291.316 31.1094 293.707 33.7461 293.719 37.6719C293.707 41.6094 291.316 44.2461 287.461 44.2578ZM284.742 37.6719C284.742 39.8984 285.668 41.5508 287.484 41.5625C289.254 41.5508 290.191 39.8984 290.18 37.6719C290.191 35.4336 289.254 33.7578 287.484 33.7578C285.668 33.7578 284.742 35.4336 284.742 37.6719ZM301.617 44.2578C297.773 44.2461 295.371 41.6094 295.383 37.6719C295.371 33.7461 297.773 31.1094 301.617 31.1094C305.473 31.1094 307.863 33.7461 307.875 37.6719C307.863 41.6094 305.473 44.2461 301.617 44.2578ZM298.898 37.6719C298.898 39.8984 299.824 41.5508 301.641 41.5625C303.41 41.5508 304.348 39.8984 304.336 37.6719C304.348 35.4336 303.41 33.7578 301.641 33.7578C299.824 33.7578 298.898 35.4336 298.898 37.6719ZM315.773 49.0391C312.258 49.0391 310.09 47.457 309.891 45.0547H313.312C313.5 46.0742 314.461 46.5312 315.844 46.5312C317.449 46.5312 318.527 45.8398 318.539 44.0703V41.75H318.375C317.918 42.7812 316.793 43.8242 314.742 43.8125C311.871 43.8242 309.562 41.7969 309.562 37.5547C309.562 33.2539 311.93 31.1094 314.742 31.1094C316.875 31.1094 317.906 32.375 318.375 33.4062H318.516V31.2734H321.961V44.1406C321.949 47.3867 319.395 49.0391 315.773 49.0391ZM313.125 37.6016C313.113 39.8047 314.062 41.1992 315.82 41.2109C317.555 41.1992 318.539 39.8633 318.539 37.6016C318.539 35.3398 317.566 33.875 315.82 33.875C314.051 33.875 313.113 35.4102 313.125 37.6016ZM328.125 27.0312V44H324.656V27.0312H328.125ZM336.586 44.2578C332.684 44.2461 330.293 41.7266 330.305 37.6953C330.293 33.7695 332.719 31.1094 336.445 31.1094C339.785 31.1094 342.422 33.2188 342.422 37.5547V38.5391H333.727C333.727 40.4609 334.863 41.6445 336.656 41.6562C337.84 41.6445 338.684 41.1289 339.023 40.3672H342.328C341.836 42.7227 339.727 44.2461 336.586 44.2578ZM333.727 36.3594H339.141C339.129 34.8125 338.062 33.6992 336.516 33.7109C334.922 33.6992 333.797 34.8945 333.727 36.3594Z" fill="white"/>
</svg>
