<svg width="225" height="69" viewBox="0 0 225 69" fill="none" xmlns="http://www.w3.org/2000/svg">
<path fill-rule="evenodd" clip-rule="evenodd" d="M9.52755 16.6428C1.32676 24.5703 1.32676 37.4222 9.52755 45.3497L14.477 40.5652C9.01174 35.2821 9.01174 26.7104 14.477 21.4273C19.9423 16.1442 28.8095 16.1442 34.2748 21.4273L39.2235 16.6436C47.4237 24.5711 47.4235 37.4226 39.2229 45.3498C31.0221 53.2772 17.727 53.2772 9.52616 45.3498L4.57671 50.1343C15.5072 60.7061 33.236 60.7061 44.1723 50.1343C55.1086 39.5681 55.1086 22.4303 44.1723 11.8585L39.2236 16.6422C31.0228 8.71541 17.7281 8.71561 9.52755 16.6428ZM29.3263 35.7803C32.0618 33.136 32.0618 28.8557 29.3263 26.2114L34.2757 21.4269C39.741 26.71 39.741 35.2817 34.2757 40.5648C28.8104 45.8479 19.9432 45.8479 14.4779 40.5648L19.4274 35.7803C22.1629 38.4247 26.5907 38.4247 29.3263 35.7803ZM19.4277 35.7795C16.6922 33.1352 16.6922 28.855 19.4277 26.2106C22.1633 23.5663 26.5911 23.5663 29.3266 26.2106L24.3772 30.9951L19.4277 35.7795Z" fill="#06FFD2"/>
<path fill-rule="evenodd" clip-rule="evenodd" d="M70.0283 56.3508V13.1699H76.404L91.0248 33.4301L105.384 13.1699H111.76V56.3508H104.979V25.4071L91.242 44.179H90.5465L76.8677 25.0785V56.3508H70.0283ZM205.384 57.7932C202.95 57.7932 200.728 57.2909 198.718 56.2862C197.168 55.496 195.893 54.4308 194.893 53.0907V57.0977H188.633V13.2213H195.183V29.3475C196.178 28.2126 197.375 27.2808 198.776 26.5523C200.708 25.5476 202.911 25.0453 205.384 25.0453C208.359 25.0453 211.025 25.7601 213.383 27.1898C215.778 28.6195 217.652 30.5709 219.005 33.0439C220.396 35.5169 221.091 38.299 221.091 41.3903C221.091 44.4815 220.396 47.2636 219.005 49.7366C217.652 52.2096 215.798 54.1803 213.441 55.6486C211.083 57.0783 208.398 57.7932 205.384 57.7932ZM204.746 51.7073C206.601 51.7073 208.243 51.2629 209.673 50.3742C211.103 49.4855 212.223 48.2683 213.035 46.7227C213.885 45.1384 214.31 43.3609 214.31 41.3903C214.31 39.4196 213.885 37.6614 213.035 36.1158C212.223 34.5702 211.103 33.353 209.673 32.4643C208.243 31.5756 206.601 31.1312 204.746 31.1312C202.93 31.1312 201.288 31.5756 199.82 32.4643C198.39 33.353 197.25 34.5702 196.4 36.1158C195.589 37.6614 195.183 39.4196 195.183 41.3903C195.183 43.3609 195.589 45.1384 196.4 46.7227C197.25 48.2683 198.39 49.4855 199.82 50.3742C201.288 51.2629 202.93 51.7073 204.746 51.7073ZM175.409 57.0953V25.7385H181.959V57.0953H175.409ZM175.409 21.4494V13.9145H181.959V21.4494H175.409ZM154.629 25.7391V57.0959H161.179V39.0121C161.179 36.5391 161.836 34.6458 163.15 33.332C164.502 31.9796 166.26 31.3033 168.424 31.3033H171.148V25.3334H169.235C167.072 25.3334 165.217 25.7971 163.671 26.7244C162.5 27.3981 161.572 28.4048 160.889 29.7445V25.7391H154.629ZM134.264 32.657C136.775 35.1695 136.775 39.2364 134.264 41.7488C131.755 44.2601 127.694 44.2613 125.183 41.7525L120.641 46.2975C115.625 41.2778 115.625 33.1335 120.641 28.1138C125.655 23.0962 133.789 23.0941 138.805 28.1077L143.347 23.5625C150.873 31.0946 150.873 43.3058 143.347 50.838C135.82 58.3701 123.618 58.3701 116.092 50.838L120.634 46.292C125.65 51.3117 133.788 51.3117 138.804 46.292C143.818 41.2744 143.82 33.1346 138.81 28.1145L134.269 32.6597C131.758 30.1472 127.694 30.1472 125.184 32.6597C122.674 35.171 122.673 39.2351 125.18 41.7478L129.721 37.2029L134.264 32.657Z" fill="white"/>
</svg>
